<svg xmlns="http://www.w3.org/2000/svg" width="14" height="14" viewBox="0 0 14 14">
  <path id="Q-Tw_Cen_MT" data-name="Q-Tw Cen MT" d="M1.728-6.789,3.716-4.606H1.456L.346-5.809a8.047,8.047,0,0,1-3.427.85,6.776,6.776,0,0,1-4.956-2.02,6.637,6.637,0,0,1-2.037-4.894,6.36,6.36,0,0,1,2.06-4.754,6.907,6.907,0,0,1,4.965-1.98,6.865,6.865,0,0,1,4.915,1.97,6.283,6.283,0,0,1,2.06,4.7A6.74,6.74,0,0,1,1.728-6.789ZM-.956-7.218l-2.781-3.011h2.26L.474-8.116a4.968,4.968,0,0,0,1.61-3.691,4.747,4.747,0,0,0-1.5-3.566A5.176,5.176,0,0,0-3.15-16.816a4.947,4.947,0,0,0-3.607,1.467,4.81,4.81,0,0,0-1.488,3.557A4.725,4.725,0,0,0-6.723-8.246,5.163,5.163,0,0,0-3.014-6.789,5.937,5.937,0,0,0-.956-7.218Z" transform="translate(10.075 18.606)" fill="#283e4a"/>
</svg>
