<svg xmlns="http://www.w3.org/2000/svg" width="40" height="40" viewBox="0 0 40 40">
  <g id="logo" transform="translate(-4 -9)">
    <rect id="Rectangle_2" data-name="Rectangle 2" width="40" height="40" rx="3" transform="translate(4 9)" fill="#0077b5"/>
    <path id="Path_44" data-name="Path 44" d="M10.371-4.477a1.8,1.8,0,0,0-.7-1.529A9.222,9.222,0,0,0,7.137-7.131,17.944,17.944,0,0,1,4.242-8.3q-2.906-1.57-2.906-4.23a4.12,4.12,0,0,1,.779-2.467,5.083,5.083,0,0,1,2.238-1.693A8.425,8.425,0,0,1,7.629-17.3a7.668,7.668,0,0,1,3.258.662,5.187,5.187,0,0,1,2.221,1.869,4.891,4.891,0,0,1,.791,2.742H10.383a2.3,2.3,0,0,0-.738-1.822A3.035,3.035,0,0,0,7.57-14.5a3.242,3.242,0,0,0-2,.545,1.719,1.719,0,0,0-.715,1.436,1.646,1.646,0,0,0,.838,1.395,9.466,9.466,0,0,0,2.467,1.055,10.658,10.658,0,0,1,4.371,2.238A4.458,4.458,0,0,1,13.9-4.5a4.106,4.106,0,0,1-1.676,3.475A7.336,7.336,0,0,1,7.711.234,8.712,8.712,0,0,1,4.125-.486,5.674,5.674,0,0,1,1.658-2.461a5.057,5.057,0,0,1-.85-2.906H4.336q0,2.824,3.375,2.824a3.283,3.283,0,0,0,1.957-.51A1.658,1.658,0,0,0,10.371-4.477ZM16.277,0V-17.062h5.977a7.848,7.848,0,0,1,4.711,1.189,4.067,4.067,0,0,1,1.605,3.486,3.855,3.855,0,0,1-.645,2.209,3.723,3.723,0,0,1-1.793,1.4A3.6,3.6,0,0,1,28.2-7.453a3.915,3.915,0,0,1,.756,2.438,4.5,4.5,0,0,1-1.57,3.727A7.069,7.069,0,0,1,22.91,0Zm3.516-7.43v4.605H22.8a2.906,2.906,0,0,0,1.939-.592,2.029,2.029,0,0,0,.7-1.635A2.143,2.143,0,0,0,23.016-7.43Zm0-2.484h2.6q2.66-.047,2.66-2.121a1.96,1.96,0,0,0-.674-1.67,3.544,3.544,0,0,0-2.127-.51H19.793Z" transform="translate(9.03 37.929)" fill="#fff"/>
  </g>
</svg>
